{"glyphs":{"0":{"ha":1111,"x_min":69,"x_max":1042,"o":"m 767 664 l 378 275 l 344 308 l 733 697 l 767 664 m 531 924 q 239 803 360 924 q 118 511 118 682 l 69 511 q 131 742 69 636 q 299 910 193 849 q 531 972 406 972 l 531 924 m 993 511 q 872 803 993 682 q 579 924 751 924 l 579 972 q 812 910 706 972 q 980 742 918 849 q 1042 511 1042 636 l 993 511 m 579 49 q 872 169 751 49 q 993 461 993 290 l 1042 461 q 980 230 1042 336 q 812 62 918 124 q 579 0 706 0 l 579 49 m 69 461 l 118 461 q 239 169 118 290 q 531 49 360 49 l 531 0 q 299 62 406 0 q 131 230 193 124 q 69 461 69 336 z "},"1":{"ha":1111,"x_min":69,"x_max":1042,"o":"m 531 0 l 69 0 l 69 49 l 531 49 l 531 0 m 531 924 l 69 924 l 69 972 l 531 972 l 531 924 m 1042 0 l 579 0 l 579 49 l 1042 49 l 1042 0 m 581 97 l 531 97 l 531 875 l 581 875 l 581 97 z "},"2":{"ha":1111,"x_min":69,"x_max":1043,"o":"m 531 924 l 69 924 l 69 972 l 531 972 l 531 924 m 1042 0 l 579 0 l 579 49 l 1042 49 l 1042 0 m 175 401 q 147 372 175 401 q 118 256 118 342 q 175 109 118 169 q 313 49 232 49 l 532 49 l 532 0 l 313 0 q 140 75 211 0 q 69 255 69 150 q 140 435 69 360 q 313 510 211 510 l 799 510 q 936 570 879 510 q 993 717 993 631 q 936 863 993 803 q 799 924 879 924 l 579 924 l 579 972 l 799 972 q 971 897 900 972 q 1042 717 1042 822 q 971 536 1042 611 q 799 461 900 461 l 313 461 q 175 401 232 461 z "},"3":{"ha":1111,"x_min":69,"x_max":1042,"o":"m 531 0 l 69 0 l 69 49 l 531 49 l 531 0 m 531 924 l 69 924 l 69 972 l 531 972 l 531 924 m 903 486 q 1003 393 965 456 q 1042 256 1042 331 q 971 75 1042 150 q 799 0 900 0 l 579 0 l 579 49 l 799 49 q 936 109 879 49 q 993 256 993 169 q 936 401 993 342 q 799 461 879 461 l 167 461 l 167 510 l 799 510 q 936 570 879 510 q 993 717 993 631 q 936 863 993 803 q 799 924 879 924 l 579 924 l 579 972 l 799 972 q 971 897 900 972 q 1042 717 1042 822 q 1003 579 1042 642 q 903 486 965 517 z "},"4":{"ha":1111,"x_min":69,"x_max":1042,"o":"m 944 461 l 167 461 l 167 510 l 944 510 l 944 461 m 118 510 l 69 510 l 69 972 l 118 972 l 118 510 m 1042 0 l 993 0 l 993 461 l 1042 461 l 1042 0 m 1042 510 l 993 510 l 993 972 l 1042 972 l 1042 510 z "},"5":{"ha":1111,"x_min":69,"x_max":1042,"o":"m 118 924 l 118 510 l 69 510 l 69 972 l 531 972 l 531 924 l 118 924 m 531 0 l 69 0 l 69 49 l 531 49 l 531 0 m 799 510 q 971 435 900 510 q 1042 256 1042 361 q 971 75 1042 150 q 799 0 900 0 l 581 0 l 581 49 l 799 49 q 936 109 879 49 q 993 256 993 169 q 936 401 993 342 q 799 461 879 461 l 167 461 l 167 510 l 799 510 m 1042 924 l 581 924 l 581 972 l 1042 972 l 1042 924 z "},"6":{"ha":1111,"x_min":69,"x_max":1042,"o":"m 118 461 q 239 169 118 290 q 532 49 360 49 l 532 0 q 299 62 406 0 q 131 230 193 124 q 69 461 69 336 l 118 461 m 532 972 l 532 924 q 239 803 360 924 q 118 511 118 682 l 69 511 q 131 742 69 636 q 299 910 193 849 q 532 972 406 972 m 993 461 l 167 461 l 167 510 l 1042 510 l 1042 461 q 980 230 1042 336 q 812 62 918 124 q 579 0 706 0 l 579 49 q 872 169 751 49 q 993 461 993 290 m 1042 924 l 579 924 l 579 972 l 1042 972 l 1042 924 z "},"7":{"ha":1111,"x_min":69,"x_max":1042,"o":"m 531 924 l 69 924 l 69 972 l 531 972 l 531 924 m 581 972 l 1042 972 l 1042 510 l 993 510 l 993 924 l 581 924 l 581 972 m 1042 0 l 993 0 l 993 461 l 1042 461 l 1042 0 z "},"8":{"ha":1111,"x_min":69,"x_max":1042,"o":"m 69 717 q 140 897 69 822 q 313 972 211 972 l 531 972 l 531 924 l 313 924 q 175 863 232 924 q 118 717 118 803 q 175 570 118 631 q 313 510 232 510 l 531 510 l 531 461 l 313 461 q 175 401 232 461 q 118 256 118 342 q 175 109 118 169 q 313 49 232 49 l 531 49 l 531 0 l 313 0 q 140 75 211 0 q 69 256 69 150 q 108 393 69 331 q 208 486 146 456 q 108 579 146 517 q 69 717 69 642 m 903 486 q 1003 393 965 456 q 1042 256 1042 331 q 971 75 1042 150 q 799 0 900 0 l 581 0 l 581 49 l 799 49 q 936 109 879 49 q 993 256 993 169 q 936 401 993 342 q 799 461 879 461 l 581 461 l 581 510 l 799 510 q 936 570 879 510 q 993 717 993 631 q 936 863 993 803 q 799 924 879 924 l 581 924 l 581 972 l 799 972 q 971 897 900 972 q 1042 717 1042 822 q 1003 579 1042 642 q 903 486 965 517 z "},"9":{"ha":1111,"x_min":69,"x_max":1042,"o":"m 993 510 q 872 803 993 682 q 579 924 751 924 l 579 972 q 812 910 706 972 q 980 742 918 849 q 1042 510 1042 636 l 993 510 m 579 49 q 872 169 751 49 q 993 461 993 290 l 1042 461 q 980 230 1042 336 q 812 62 918 124 q 579 0 706 0 l 579 49 m 944 510 l 944 463 l 69 463 l 69 511 q 131 742 69 636 q 299 910 193 849 q 531 972 406 972 l 531 924 q 239 803 360 924 q 118 510 118 682 l 944 510 m 531 0 l 69 0 l 69 49 l 531 49 l 531 0 z "},"\u000b":{"ha":732,"x_min":69,"x_max":663,"o":"m 69 972 l 663 972 l 663 0 l 69 0 l 69 972 m 108 944 l 365 515 l 624 944 l 108 944 m 349 486 l 99 903 l 99 68 l 349 486 m 367 457 l 110 29 l 624 29 l 367 457 m 383 486 l 635 65 l 635 906 l 383 486 z "},"\f":{"ha":732,"x_min":69,"x_max":663,"o":"m 69 972 l 663 972 l 663 0 l 69 0 l 69 972 m 108 944 l 365 515 l 624 944 l 108 944 m 349 486 l 99 903 l 99 68 l 349 486 m 367 457 l 110 29 l 624 29 l 367 457 m 383 486 l 635 65 l 635 906 l 383 486 z "},"Æ":{"ha":732,"x_min":69,"x_max":663,"o":"m 69 972 l 663 972 l 663 0 l 69 0 l 69 972 m 108 944 l 365 515 l 624 944 l 108 944 m 349 486 l 99 903 l 99 68 l 349 486 m 367 457 l 110 29 l 624 29 l 367 457 m 383 486 l 635 65 l 635 906 l 383 486 z "},"Ð":{"ha":732,"x_min":69,"x_max":663,"o":"m 69 972 l 663 972 l 663 0 l 69 0 l 69 972 m 108 944 l 365 515 l 624 944 l 108 944 m 349 486 l 99 903 l 99 68 l 349 486 m 367 457 l 110 29 l 624 29 l 367 457 m 383 486 l 635 65 l 635 906 l 383 486 z "},"Þ":{"ha":732,"x_min":69,"x_max":663,"o":"m 69 972 l 663 972 l 663 0 l 69 0 l 69 972 m 108 944 l 365 515 l 624 944 l 108 944 m 349 486 l 99 903 l 99 68 l 349 486 m 367 457 l 110 29 l 624 29 l 367 457 m 383 486 l 635 65 l 635 906 l 383 486 z "},"ß":{"ha":732,"x_min":69,"x_max":663,"o":"m 69 972 l 663 972 l 663 0 l 69 0 l 69 972 m 108 944 l 365 515 l 624 944 l 108 944 m 349 486 l 99 903 l 99 68 l 349 486 m 367 457 l 110 29 l 624 29 l 367 457 m 383 486 l 635 65 l 635 906 l 383 486 z "},"æ":{"ha":732,"x_min":69,"x_max":663,"o":"m 69 972 l 663 972 l 663 0 l 69 0 l 69 972 m 108 944 l 365 515 l 624 944 l 108 944 m 349 486 l 99 903 l 99 68 l 349 486 m 367 457 l 110 29 l 624 29 l 367 457 m 383 486 l 635 65 l 635 906 l 383 486 z "},"ð":{"ha":732,"x_min":69,"x_max":663,"o":"m 69 972 l 663 972 l 663 0 l 69 0 l 69 972 m 108 944 l 365 515 l 624 944 l 108 944 m 349 486 l 99 903 l 99 68 l 349 486 m 367 457 l 110 29 l 624 29 l 367 457 m 383 486 l 635 65 l 635 906 l 383 486 z "},"þ":{"ha":732,"x_min":69,"x_max":663,"o":"m 69 972 l 663 972 l 663 0 l 69 0 l 69 972 m 108 944 l 365 515 l 624 944 l 108 944 m 349 486 l 99 903 l 99 68 l 349 486 m 367 457 l 110 29 l 624 29 l 367 457 m 383 486 l 635 65 l 635 906 l 383 486 z "},"‚":{"ha":732,"x_min":69,"x_max":663,"o":"m 69 972 l 663 972 l 663 0 l 69 0 l 69 972 m 108 944 l 365 515 l 624 944 l 108 944 m 349 486 l 99 903 l 99 68 l 349 486 m 367 457 l 110 29 l 624 29 l 367 457 m 383 486 l 635 65 l 635 906 l 383 486 z "},"‛":{"ha":732,"x_min":69,"x_max":663,"o":"m 69 972 l 663 972 l 663 0 l 69 0 l 69 972 m 108 944 l 365 515 l 624 944 l 108 944 m 349 486 l 99 903 l 99 68 l 349 486 m 367 457 l 110 29 l 624 29 l 367 457 m 383 486 l 635 65 l 635 906 l 383 486 z "},"\u0000":{"ha":0,"x_min":0,"x_max":0,"o":""},"\n":{"ha":0,"x_min":0,"x_max":0,"o":""},"\r":{"ha":0,"x_min":0,"x_max":0,"o":""}," ":{"ha":556,"x_min":0,"x_max":0,"o":""},"!":{"ha":399,"x_min":69,"x_max":329,"o":"m 224 357 l 175 357 l 175 972 l 224 972 l 224 357 m 108 222 q 127 241 108 222 q 199 260 146 260 q 291 222 253 260 q 329 130 329 183 q 291 38 329 76 q 199 0 253 0 q 108 38 146 0 q 69 130 69 76 q 108 222 69 183 m 142 72 q 153 60 142 72 q 199 49 165 49 q 256 72 232 49 q 281 130 281 96 q 256 188 281 164 q 199 211 232 211 q 142 188 165 211 q 118 130 118 164 q 142 72 118 96 z "},"\"":{"ha":447,"x_min":69,"x_max":378,"o":"m 69 972 l 118 972 l 118 657 l 69 657 l 69 972 m 329 972 l 378 972 l 378 657 l 329 657 l 329 972 z "},"#":{"ha":1111,"x_min":69,"x_max":1042,"o":"m 1042 624 l 742 624 l 742 349 l 1042 349 l 1042 300 l 742 300 l 742 0 l 693 0 l 693 300 l 418 300 l 418 0 l 369 0 l 369 300 l 69 300 l 69 349 l 369 349 l 369 624 l 69 624 l 69 672 l 369 672 l 369 972 l 418 972 l 418 672 l 693 672 l 693 972 l 742 972 l 742 672 l 1042 672 l 1042 624 m 693 349 l 693 624 l 418 624 l 418 349 l 693 349 z "},"$":{"ha":1111,"x_min":69,"x_max":1042,"o":"m 531 -1 l 69 -1 l 69 47 l 799 47 q 936 108 879 47 q 993 254 993 168 q 936 400 993 340 q 799 460 879 460 l 313 460 q 140 535 211 460 q 69 715 69 610 q 140 896 69 821 q 313 971 211 971 l 531 971 l 531 1076 l 579 1076 l 579 971 l 1042 971 l 1042 922 l 313 922 q 175 862 232 922 q 118 715 118 801 q 175 569 118 629 q 313 508 232 508 l 799 508 q 971 433 900 508 q 1042 253 1042 358 q 971 74 1042 149 q 799 -1 900 -1 l 579 -1 l 579 -107 l 531 -107 l 531 -1 z "},"%":{"ha":1111,"x_min":69,"x_max":1042,"o":"m 1040 938 l 104 1 l 71 36 l 1006 971 l 1040 938 m 820 222 q 839 241 820 222 q 912 260 858 260 q 1003 222 965 260 q 1042 130 1042 183 q 1003 38 1042 76 q 912 0 965 0 q 820 38 858 0 q 782 130 782 76 q 820 222 782 183 m 854 72 q 866 60 854 72 q 912 49 878 49 q 969 72 946 49 q 993 129 993 96 q 969 187 993 163 q 912 211 946 211 q 854 187 878 211 q 831 129 831 163 q 854 72 831 96 m 291 751 q 272 732 291 751 q 199 713 253 713 q 108 751 146 713 q 69 842 69 789 q 108 934 69 896 q 199 972 146 972 q 291 934 253 972 q 329 842 329 896 q 291 751 329 789 m 257 900 q 245 912 257 900 q 199 924 233 924 q 142 900 165 924 q 118 842 118 876 q 142 785 118 808 q 199 761 165 761 q 257 785 233 761 q 281 842 281 808 q 257 900 281 876 z "},"&":{"ha":1111,"x_min":68,"x_max":1042,"o":"m 710 924 l 579 924 l 579 972 l 710 972 l 710 924 m 822 713 l 822 510 l 1042 510 l 1042 461 l 822 461 l 822 243 q 751 72 822 143 q 579 0 681 0 l 579 49 q 717 106 660 49 q 774 243 774 163 l 774 461 l 325 461 q 178 401 239 461 q 118 255 118 340 q 178 109 118 169 q 325 49 239 49 l 531 49 l 531 0 l 325 0 q 144 75 219 0 q 69 256 69 150 q 108 391 69 329 q 213 485 147 453 q 109 578 149 515 q 69 717 69 640 q 140 897 69 822 q 313 972 211 972 l 532 972 l 532 924 l 313 924 q 175 863 232 924 q 118 717 118 803 q 175 571 118 631 q 313 511 232 511 l 774 511 l 774 713 l 822 713 z "},"'":{"ha":188,"x_min":69,"x_max":119,"o":"m 118 657 l 69 657 l 69 972 l 118 972 l 118 657 z "},"(":{"ha":601,"x_min":69,"x_max":532,"o":"m 118 510 l 69 510 q 131 742 69 636 q 299 910 193 849 q 531 972 406 972 l 531 924 q 239 803 360 924 q 118 510 118 682 m 532 49 l 531 0 q 299 62 406 0 q 131 230 193 124 q 69 461 69 336 l 118 461 q 239 169 118 290 q 532 49 360 49 z "},")":{"ha":600,"x_min":69,"x_max":532,"o":"m 531 510 l 482 510 q 361 803 482 682 q 69 924 240 924 l 69 972 q 301 910 194 972 q 469 742 407 849 q 531 510 531 636 m 482 463 l 531 461 q 469 230 531 336 q 301 62 407 124 q 69 0 194 0 l 69 49 q 361 169 240 49 q 482 463 482 290 z "},"*":{"ha":593,"x_min":69,"x_max":524,"o":"m 272 972 l 321 972 l 321 826 l 272 826 l 272 972 m 524 778 l 524 729 l 69 729 l 69 778 l 524 778 m 322 661 l 356 696 l 506 546 l 472 511 l 322 661 m 121 511 l 86 546 l 236 696 l 271 661 l 121 511 z "},"+":{"ha":1111,"x_min":69,"x_max":1042,"o":"m 579 510 l 1042 510 l 1042 461 l 579 461 l 579 0 l 531 0 l 531 461 l 69 461 l 69 510 l 531 510 l 531 972 l 579 972 l 579 510 z "},",":{"ha":399,"x_min":69,"x_max":329,"o":"m 108 221 q 127 240 108 221 q 199 258 146 258 q 291 221 253 258 q 329 129 329 183 q 260 -37 329 32 q 93 -106 192 -106 l 93 -57 q 232 4 176 -57 q 199 0 215 0 q 108 38 146 0 q 69 130 69 76 q 108 221 69 183 m 142 72 q 153 60 142 72 q 199 49 165 49 q 257 72 233 49 q 281 129 281 96 q 257 187 281 163 q 199 211 233 211 q 142 187 165 211 q 118 129 118 163 q 142 72 118 96 z "},"-":{"ha":722,"x_min":69,"x_max":653,"o":"m 653 510 l 653 461 l 69 461 l 69 510 l 653 510 z "},".":{"ha":399,"x_min":69,"x_max":329,"o":"m 257 72 q 269 84 257 72 q 281 129 281 96 q 257 187 281 163 q 199 211 233 211 q 142 187 165 211 q 118 129 118 163 q 142 72 118 96 q 199 49 165 49 q 257 72 233 49 m 291 38 q 272 19 291 38 q 199 0 253 0 q 108 38 146 0 q 69 130 69 76 q 108 222 69 183 q 199 260 146 260 q 291 222 253 260 q 329 130 329 183 q 291 38 329 76 z "},"/":{"ha":1111,"x_min":71,"x_max":1042,"o":"m 1040 936 l 106 0 l 71 35 l 1007 969 l 1040 936 z "},":":{"ha":399,"x_min":68,"x_max":329,"o":"m 142 543 q 130 531 142 543 q 118 486 118 519 q 142 429 118 453 q 199 406 165 406 q 257 429 233 406 q 281 486 281 453 q 257 543 281 519 q 199 567 233 567 q 142 543 165 567 m 108 578 q 127 597 108 578 q 199 615 146 615 q 291 578 253 615 q 329 486 329 540 q 291 394 329 432 q 199 357 253 357 q 108 394 146 357 q 69 486 69 432 q 108 578 69 540 m 142 188 q 130 176 142 188 q 118 130 118 164 q 142 72 118 96 q 199 49 165 49 q 257 72 233 49 q 281 130 281 96 q 257 188 281 164 q 199 211 233 211 q 142 188 165 211 m 108 222 q 127 241 108 222 q 199 260 146 260 q 291 222 253 260 q 329 130 329 183 q 291 38 329 76 q 199 0 253 0 q 108 38 146 0 q 69 130 69 76 q 108 222 69 183 z "},";":{"ha":399,"x_min":68,"x_max":329,"o":"m 142 543 q 130 531 142 543 q 118 486 118 519 q 142 428 118 453 q 199 404 165 404 q 257 428 233 404 q 281 486 281 453 q 257 543 281 519 q 199 567 233 567 q 142 543 165 567 m 108 577 q 127 596 108 577 q 199 615 146 615 q 291 577 253 615 q 329 485 329 539 q 291 394 329 432 q 199 356 253 356 q 108 394 146 356 q 69 485 69 432 q 108 577 69 539 m 257 72 q 269 84 257 72 q 281 129 281 96 q 257 186 281 163 q 199 210 233 210 q 142 186 165 210 q 118 129 118 163 q 142 72 118 96 q 199 49 165 49 q 257 72 233 49 m 94 -57 q 232 4 176 -57 q 199 0 215 0 q 108 38 146 0 q 69 130 69 76 q 108 221 69 183 q 199 258 146 258 q 291 221 253 258 q 329 129 329 183 q 260 -37 329 32 q 94 -106 192 -106 l 94 -57 z "},"<":{"ha":599,"x_min":69,"x_max":529,"o":"m 494 969 l 529 936 l 104 510 l 69 544 l 494 969 m 529 35 l 494 0 l 69 425 l 104 460 l 529 35 z "},"=":{"ha":1111,"x_min":69,"x_max":1042,"o":"m 69 629 l 69 678 l 1042 678 l 1042 629 l 69 629 m 69 306 l 69 354 l 1042 354 l 1042 306 l 69 306 z "},">":{"ha":599,"x_min":69,"x_max":529,"o":"m 69 936 l 104 969 l 529 544 l 494 510 l 69 936 m 104 0 l 69 35 l 494 460 l 529 425 l 104 0 z "},"?":{"ha":1111,"x_min":69,"x_max":1042,"o":"m 532 924 l 69 924 l 69 972 l 532 972 l 532 924 m 464 222 q 483 241 464 222 q 556 260 501 260 q 647 222 610 260 q 685 130 685 183 q 647 38 685 76 q 556 0 610 0 q 464 38 501 0 q 426 130 426 76 q 464 222 426 183 m 499 72 q 510 60 499 72 q 556 49 522 49 q 613 72 589 49 q 636 130 636 96 q 613 188 636 164 q 556 211 589 211 q 499 188 522 211 q 475 130 475 164 q 499 72 475 96 m 799 972 q 971 897 900 972 q 1042 717 1042 822 q 971 536 1042 611 q 799 461 900 461 l 579 461 l 579 357 l 532 357 l 532 511 l 799 511 q 936 571 879 511 q 993 717 993 631 q 936 863 993 803 q 799 924 879 924 l 579 924 l 579 972 l 799 972 z "},"@":{"ha":1111,"x_min":69,"x_max":1042,"o":"m 118 461 q 239 169 118 290 q 531 49 360 49 l 531 0 q 299 62 406 0 q 131 230 193 124 q 69 461 69 336 l 118 461 m 289 461 l 338 461 q 394 324 338 382 q 532 267 451 267 l 532 218 q 360 290 431 218 q 289 461 289 361 m 993 511 q 872 803 993 682 q 579 924 751 924 l 579 972 q 812 910 706 972 q 980 742 918 849 q 1042 511 1042 636 l 993 511 m 822 511 l 774 511 q 717 648 774 590 q 579 706 660 706 l 579 753 q 751 682 681 753 q 822 511 822 611 m 993 353 l 993 461 l 1042 461 l 1042 353 q 1003 258 1042 297 q 908 218 964 218 q 825 247 861 218 q 778 321 789 276 q 692 246 744 274 q 579 218 640 218 l 579 267 q 717 324 660 267 q 774 461 774 382 l 822 461 l 822 353 q 847 292 822 317 q 908 267 872 267 q 968 292 943 267 q 993 353 993 317 m 1042 0 l 579 0 l 579 49 l 1042 49 l 1042 0 m 69 511 q 131 742 69 636 q 299 910 193 849 q 531 972 406 972 l 531 924 q 239 803 360 924 q 118 511 118 682 l 69 511 m 336 511 l 288 511 q 359 682 288 611 q 531 753 431 753 l 531 706 q 393 648 450 706 q 336 511 336 590 z "},"A":{"ha":1111,"x_min":69,"x_max":1042,"o":"m 531 925 q 239 804 360 925 q 118 513 118 683 l 69 513 q 131 744 69 638 q 299 912 193 850 q 531 974 406 974 l 531 925 m 993 513 q 872 804 993 683 q 579 925 751 925 l 579 974 q 812 912 706 974 q 980 744 918 850 q 1042 513 1042 638 l 993 513 m 118 1 l 69 1 l 69 464 l 118 464 l 118 1 m 1042 1 l 993 1 l 993 464 l 1042 464 l 1042 1 m 944 464 l 167 464 l 167 513 l 944 513 l 944 464 z "},"À":{"ha":1111,"x_min":69,"x_max":1042,"o":"m 531 925 q 239 804 360 925 q 118 513 118 683 l 69 513 q 131 744 69 638 q 299 912 193 850 q 531 974 406 974 l 531 925 m 993 513 q 872 804 993 683 q 579 925 751 925 l 579 974 q 812 912 706 974 q 980 744 918 850 q 1042 513 1042 638 l 993 513 m 118 1 l 69 1 l 69 464 l 118 464 l 118 1 m 1042 1 l 993 1 l 993 464 l 1042 464 l 1042 1 m 944 464 l 167 464 l 167 513 l 944 513 l 944 464 z "},"Á":{"ha":1111,"x_min":69,"x_max":1042,"o":"m 531 925 q 239 804 360 925 q 118 513 118 683 l 69 513 q 131 744 69 638 q 299 912 193 850 q 531 974 406 974 l 531 925 m 993 513 q 872 804 993 683 q 579 925 751 925 l 579 974 q 812 912 706 974 q 980 744 918 850 q 1042 513 1042 638 l 993 513 m 118 1 l 69 1 l 69 464 l 118 464 l 118 1 m 1042 1 l 993 1 l 993 464 l 1042 464 l 1042 1 m 944 464 l 167 464 l 167 513 l 944 513 l 944 464 z "},"Â":{"ha":1111,"x_min":69,"x_max":1042,"o":"m 531 925 q 239 804 360 925 q 118 513 118 683 l 69 513 q 131 744 69 638 q 299 912 193 850 q 531 974 406 974 l 531 925 m 993 513 q 872 804 993 683 q 579 925 751 925 l 579 974 q 812 912 706 974 q 980 744 918 850 q 1042 513 1042 638 l 993 513 m 118 1 l 69 1 l 69 464 l 118 464 l 118 1 m 1042 1 l 993 1 l 993 464 l 1042 464 l 1042 1 m 944 464 l 167 464 l 167 513 l 944 513 l 944 464 z "},"Ã":{"ha":1111,"x_min":69,"x_max":1042,"o":"m 531 925 q 239 804 360 925 q 118 513 118 683 l 69 513 q 131 744 69 638 q 299 912 193 850 q 531 974 406 974 l 531 925 m 993 513 q 872 804 993 683 q 579 925 751 925 l 579 974 q 812 912 706 974 q 980 744 918 850 q 1042 513 1042 638 l 993 513 m 118 1 l 69 1 l 69 464 l 118 464 l 118 1 m 1042 1 l 993 1 l 993 464 l 1042 464 l 1042 1 m 944 464 l 167 464 l 167 513 l 944 513 l 944 464 z "},"Ä":{"ha":1111,"x_min":69,"x_max":1042,"o":"m 531 925 q 239 804 360 925 q 118 513 118 683 l 69 513 q 131 744 69 638 q 299 912 193 850 q 531 974 406 974 l 531 925 m 993 513 q 872 804 993 683 q 579 925 751 925 l 579 974 q 812 912 706 974 q 980 744 918 850 q 1042 513 1042 638 l 993 513 m 118 1 l 69 1 l 69 464 l 118 464 l 118 1 m 1042 1 l 993 1 l 993 464 l 1042 464 l 1042 1 m 944 464 l 167 464 l 167 513 l 944 513 l 944 464 z "},"Å":{"ha":1111,"x_min":69,"x_max":1042,"o":"m 531 925 q 239 804 360 925 q 118 513 118 683 l 69 513 q 131 744 69 638 q 299 912 193 850 q 531 974 406 974 l 531 925 m 993 513 q 872 804 993 683 q 579 925 751 925 l 579 974 q 812 912 706 974 q 980 744 918 850 q 1042 513 1042 638 l 993 513 m 118 1 l 69 1 l 69 464 l 118 464 l 118 1 m 1042 1 l 993 1 l 993 464 l 1042 464 l 1042 1 m 944 464 l 167 464 l 167 513 l 944 513 l 944 464 z "},"B":{"ha":1111,"x_min":69,"x_max":1042,"o":"m 69 513 l 69 974 l 531 974 l 531 925 l 118 925 l 118 513 l 69 513 m 118 464 l 118 50 l 531 50 l 531 1 l 69 1 l 69 464 l 118 464 m 903 488 q 1003 394 965 457 q 1042 257 1042 332 q 971 76 1042 151 q 799 1 900 1 l 579 1 l 579 50 l 799 50 q 936 110 879 50 q 993 257 993 171 q 936 403 993 343 q 799 464 879 464 l 579 464 l 579 513 l 799 513 q 936 573 879 513 q 993 719 993 633 q 936 865 993 806 q 799 925 879 925 l 579 925 l 579 974 l 799 974 q 971 899 900 974 q 1042 719 1042 824 q 1003 582 1042 644 q 903 488 965 519 z "},"C":{"ha":1111,"x_min":69,"x_max":1042,"o":"m 69 513 q 131 744 69 638 q 299 912 193 850 q 532 974 406 974 l 532 925 q 239 804 360 925 q 118 513 118 683 l 69 513 m 118 464 q 239 172 118 293 q 532 50 360 50 l 532 1 q 299 63 406 1 q 131 232 193 125 q 69 464 69 339 l 118 464 m 1042 1 l 579 1 l 579 50 l 1042 50 l 1042 1 m 1042 925 l 579 925 l 579 974 l 1042 974 l 1042 925 z "},"Ç":{"ha":1111,"x_min":69,"x_max":1042,"o":"m 69 513 q 131 744 69 638 q 299 912 193 850 q 532 974 406 974 l 532 925 q 239 804 360 925 q 118 513 118 683 l 69 513 m 118 464 q 239 172 118 293 q 532 50 360 50 l 532 1 q 299 63 406 1 q 131 232 193 125 q 69 464 69 339 l 118 464 m 1042 1 l 579 1 l 579 50 l 1042 50 l 1042 1 m 1042 925 l 579 925 l 579 974 l 1042 974 l 1042 925 z "},"D":{"ha":1111,"x_min":69,"x_max":1042,"o":"m 118 464 l 118 50 l 532 50 l 532 1 l 69 1 l 69 464 l 118 464 m 993 513 q 872 804 993 683 q 579 925 751 925 l 579 974 q 812 912 706 974 q 980 744 918 850 q 1042 513 1042 638 l 993 513 m 69 513 l 69 974 l 532 974 l 532 925 l 118 925 l 118 513 l 69 513 m 579 50 q 872 172 751 50 q 993 464 993 293 l 1042 464 q 980 231 1042 338 q 812 63 918 125 q 579 1 706 1 l 579 50 z "},"E":{"ha":1111,"x_min":69,"x_max":1042,"o":"m 1042 -3 l 579 -3 l 579 46 l 1042 46 l 1042 -3 m 532 969 l 532 921 q 239 800 360 921 q 118 508 118 679 l 69 508 q 131 740 69 633 q 299 908 193 846 q 532 969 406 969 m 118 460 q 239 167 118 289 q 532 46 360 46 l 532 -3 q 299 59 406 -3 q 131 227 193 121 q 69 460 69 333 l 118 460 m 1042 921 l 579 921 l 579 969 l 1042 969 l 1042 921 m 1042 460 l 313 460 l 313 508 l 1042 508 l 1042 460 z "},"È":{"ha":1111,"x_min":69,"x_max":1042,"o":"m 1042 -3 l 579 -3 l 579 46 l 1042 46 l 1042 -3 m 532 969 l 532 921 q 239 800 360 921 q 118 508 118 679 l 69 508 q 131 740 69 633 q 299 908 193 846 q 532 969 406 969 m 118 460 q 239 167 118 289 q 532 46 360 46 l 532 -3 q 299 59 406 -3 q 131 227 193 121 q 69 460 69 333 l 118 460 m 1042 921 l 579 921 l 579 969 l 1042 969 l 1042 921 m 1042 460 l 313 460 l 313 508 l 1042 508 l 1042 460 z "},"É":{"ha":1111,"x_min":69,"x_max":1042,"o":"m 1042 -3 l 579 -3 l 579 46 l 1042 46 l 1042 -3 m 532 969 l 532 921 q 239 800 360 921 q 118 508 118 679 l 69 508 q 131 740 69 633 q 299 908 193 846 q 532 969 406 969 m 118 460 q 239 167 118 289 q 532 46 360 46 l 532 -3 q 299 59 406 -3 q 131 227 193 121 q 69 460 69 333 l 118 460 m 1042 921 l 579 921 l 579 969 l 1042 969 l 1042 921 m 1042 460 l 313 460 l 313 508 l 1042 508 l 1042 460 z "},"Ê":{"ha":1111,"x_min":69,"x_max":1042,"o":"m 1042 -3 l 579 -3 l 579 46 l 1042 46 l 1042 -3 m 532 969 l 532 921 q 239 800 360 921 q 118 508 118 679 l 69 508 q 131 740 69 633 q 299 908 193 846 q 532 969 406 969 m 118 460 q 239 167 118 289 q 532 46 360 46 l 532 -3 q 299 59 406 -3 q 131 227 193 121 q 69 460 69 333 l 118 460 m 1042 921 l 579 921 l 579 969 l 1042 969 l 1042 921 m 1042 460 l 313 460 l 313 508 l 1042 508 l 1042 460 z "},"Ë":{"ha":1111,"x_min":69,"x_max":1042,"o":"m 1042 -3 l 579 -3 l 579 46 l 1042 46 l 1042 -3 m 532 969 l 532 921 q 239 800 360 921 q 118 508 118 679 l 69 508 q 131 740 69 633 q 299 908 193 846 q 532 969 406 969 m 118 460 q 239 167 118 289 q 532 46 360 46 l 532 -3 q 299 59 406 -3 q 131 227 193 121 q 69 460 69 333 l 118 460 m 1042 921 l 579 921 l 579 969 l 1042 969 l 1042 921 m 1042 460 l 313 460 l 313 508 l 1042 508 l 1042 460 z "},"F":{"ha":1111,"x_min":69,"x_max":1042,"o":"m 118 1 l 69 1 l 69 464 l 118 464 l 118 1 m 532 974 l 532 925 q 239 804 360 925 q 118 513 118 683 l 69 513 q 131 744 69 638 q 299 912 193 850 q 532 974 406 974 m 1042 925 l 579 925 l 579 974 l 1042 974 l 1042 925 m 1042 464 l 313 464 l 313 513 l 1042 513 l 1042 464 z "},"G":{"ha":1111,"x_min":69,"x_max":1042,"o":"m 118 464 q 239 172 118 293 q 532 50 360 50 l 532 1 q 299 63 406 1 q 131 232 193 125 q 69 464 69 339 l 118 464 m 69 513 q 131 744 69 638 q 299 912 193 850 q 531 974 406 974 l 531 925 q 239 804 360 925 q 118 513 118 683 l 69 513 m 1042 925 l 581 925 l 581 974 l 1042 974 l 1042 925 m 581 464 l 581 513 l 1042 513 l 1042 464 q 980 231 1042 338 q 812 63 918 125 q 581 1 706 1 l 581 50 q 872 172 751 50 q 993 464 993 293 l 581 464 z "},"H":{"ha":1111,"x_min":69,"x_max":1042,"o":"m 118 -3 l 69 -3 l 69 460 l 118 460 l 118 -3 m 118 508 l 69 508 l 69 969 l 118 969 l 118 508 m 1042 508 l 993 508 l 993 969 l 1042 969 l 1042 508 m 944 460 l 167 460 l 167 508 l 944 508 l 944 460 m 1042 -3 l 993 -3 l 993 460 l 1042 460 l 1042 -3 z "},"I":{"ha":1111,"x_min":69,"x_max":1042,"o":"m 579 94 l 531 94 l 531 872 l 579 872 l 579 94 m 531 -3 l 69 -3 l 69 46 l 531 46 l 531 -3 m 531 921 l 69 921 l 69 969 l 531 969 l 531 921 m 1042 -3 l 579 -3 l 579 46 l 1042 46 l 1042 -3 m 1042 921 l 579 921 l 579 969 l 1042 969 l 1042 921 z "},"Ì":{"ha":1111,"x_min":69,"x_max":1042,"o":"m 579 94 l 531 94 l 531 872 l 579 872 l 579 94 m 531 -3 l 69 -3 l 69 46 l 531 46 l 531 -3 m 531 921 l 69 921 l 69 969 l 531 969 l 531 921 m 1042 -3 l 579 -3 l 579 46 l 1042 46 l 1042 -3 m 1042 921 l 579 921 l 579 969 l 1042 969 l 1042 921 z "},"Í":{"ha":1111,"x_min":69,"x_max":1042,"o":"m 579 94 l 531 94 l 531 872 l 579 872 l 579 94 m 531 -3 l 69 -3 l 69 46 l 531 46 l 531 -3 m 531 921 l 69 921 l 69 969 l 531 969 l 531 921 m 1042 -3 l 579 -3 l 579 46 l 1042 46 l 1042 -3 m 1042 921 l 579 921 l 579 969 l 1042 969 l 1042 921 z "},"Î":{"ha":1111,"x_min":69,"x_max":1042,"o":"m 579 94 l 531 94 l 531 872 l 579 872 l 579 94 m 531 -3 l 69 -3 l 69 46 l 531 46 l 531 -3 m 531 921 l 69 921 l 69 969 l 531 969 l 531 921 m 1042 -3 l 579 -3 l 579 46 l 1042 46 l 1042 -3 m 1042 921 l 579 921 l 579 969 l 1042 969 l 1042 921 z "},"Ï":{"ha":1111,"x_min":69,"x_max":1042,"o":"m 579 94 l 531 94 l 531 872 l 579 872 l 579 94 m 531 -3 l 69 -3 l 69 46 l 531 46 l 531 -3 m 531 921 l 69 921 l 69 969 l 531 969 l 531 921 m 1042 -3 l 579 -3 l 579 46 l 1042 46 l 1042 -3 m 1042 921 l 579 921 l 579 969 l 1042 969 l 1042 921 z "},"J":{"ha":1111,"x_min":68,"x_max":1042,"o":"m 1042 508 l 993 508 l 993 969 l 1042 969 l 1042 508 m 118 460 q 239 167 118 289 q 531 46 360 46 l 531 -3 q 299 59 406 -3 q 131 227 193 121 q 69 460 69 333 l 118 460 m 579 -3 l 579 46 q 872 167 751 46 q 993 460 993 289 l 1042 460 q 980 227 1042 333 q 812 59 918 121 q 579 -3 706 -3 z "},"K":{"ha":1111,"x_min":69,"x_max":1042,"o":"m 118 -3 l 69 -3 l 69 460 l 118 460 l 118 -3 m 118 508 l 69 508 l 69 969 l 118 969 l 118 508 m 688 483 q 942 300 843 433 q 1042 -3 1042 167 l 993 -3 q 931 230 993 124 q 763 398 869 336 q 532 460 657 460 l 167 460 l 167 508 l 532 508 q 763 570 657 508 q 931 738 869 632 q 993 969 993 844 l 1042 969 q 942 667 1042 801 q 688 483 843 533 z "},"L":{"ha":1111,"x_min":69,"x_max":1042,"o":"m 118 513 l 69 513 l 69 974 l 118 974 l 118 513 m 1042 1 l 579 1 l 579 50 l 1042 50 l 1042 1 m 118 464 l 118 50 l 532 50 l 532 1 l 69 1 l 69 464 l 118 464 z "},"M":{"ha":1111,"x_min":69,"x_max":1042,"o":"m 579 -3 l 531 -3 l 531 726 l 579 726 l 579 -3 m 531 969 l 531 921 q 239 800 360 921 q 118 508 118 679 l 69 508 q 131 740 69 633 q 299 908 193 846 q 531 969 406 969 m 118 -3 l 69 -3 l 69 460 l 118 460 l 118 -3 m 1042 -3 l 993 -3 l 993 460 l 1042 460 l 1042 -3 m 1042 508 l 993 508 q 872 800 993 679 q 579 921 751 921 l 579 969 q 812 908 706 969 q 980 740 918 846 q 1042 508 1042 633 z "},"N":{"ha":1111,"x_min":69,"x_max":1042,"o":"m 1042 -3 l 993 -3 l 993 460 l 1042 460 l 1042 -3 m 69 508 q 131 740 69 633 q 299 908 193 846 q 531 969 406 969 l 531 921 q 239 800 360 921 q 118 508 118 679 l 69 508 m 118 -3 l 69 -3 l 69 460 l 118 460 l 118 -3 m 1042 508 l 993 508 q 872 800 993 679 q 579 921 751 921 l 579 969 q 812 908 706 969 q 980 740 918 846 q 1042 508 1042 633 z "},"Ñ":{"ha":1111,"x_min":69,"x_max":1042,"o":"m 1042 -3 l 993 -3 l 993 460 l 1042 460 l 1042 -3 m 69 508 q 131 740 69 633 q 299 908 193 846 q 531 969 406 969 l 531 921 q 239 800 360 921 q 118 508 118 679 l 69 508 m 118 -3 l 69 -3 l 69 460 l 118 460 l 118 -3 m 1042 508 l 993 508 q 872 800 993 679 q 579 921 751 921 l 579 969 q 812 908 706 969 q 980 740 918 846 q 1042 508 1042 633 z "},"O":{"ha":1111,"x_min":68,"x_max":1042,"o":"m 993 513 q 872 804 993 683 q 579 925 751 925 l 579 974 q 812 912 706 974 q 980 744 918 850 q 1042 513 1042 638 l 993 513 m 118 464 q 239 172 118 293 q 531 50 360 50 l 531 1 q 299 63 406 1 q 131 231 193 125 q 69 464 69 338 l 118 464 m 579 50 q 872 172 751 50 q 993 464 993 293 l 1042 464 q 980 231 1042 338 q 812 63 918 125 q 579 1 706 1 l 579 50 m 69 513 q 131 744 69 638 q 299 912 193 850 q 531 974 406 974 l 531 925 q 239 804 360 925 q 118 513 118 683 l 69 513 z "},"Ò":{"ha":1111,"x_min":68,"x_max":1042,"o":"m 993 513 q 872 804 993 683 q 579 925 751 925 l 579 974 q 812 912 706 974 q 980 744 918 850 q 1042 513 1042 638 l 993 513 m 118 464 q 239 172 118 293 q 531 50 360 50 l 531 1 q 299 63 406 1 q 131 231 193 125 q 69 464 69 338 l 118 464 m 579 50 q 872 172 751 50 q 993 464 993 293 l 1042 464 q 980 231 1042 338 q 812 63 918 125 q 579 1 706 1 l 579 50 m 69 513 q 131 744 69 638 q 299 912 193 850 q 531 974 406 974 l 531 925 q 239 804 360 925 q 118 513 118 683 l 69 513 z "},"Ó":{"ha":1111,"x_min":68,"x_max":1042,"o":"m 993 513 q 872 804 993 683 q 579 925 751 925 l 579 974 q 812 912 706 974 q 980 744 918 850 q 1042 513 1042 638 l 993 513 m 118 464 q 239 172 118 293 q 531 50 360 50 l 531 1 q 299 63 406 1 q 131 231 193 125 q 69 464 69 338 l 118 464 m 579 50 q 872 172 751 50 q 993 464 993 293 l 1042 464 q 980 231 1042 338 q 812 63 918 125 q 579 1 706 1 l 579 50 m 69 513 q 131 744 69 638 q 299 912 193 850 q 531 974 406 974 l 531 925 q 239 804 360 925 q 118 513 118 683 l 69 513 z "},"Ô":{"ha":1111,"x_min":68,"x_max":1042,"o":"m 993 513 q 872 804 993 683 q 579 925 751 925 l 579 974 q 812 912 706 974 q 980 744 918 850 q 1042 513 1042 638 l 993 513 m 118 464 q 239 172 118 293 q 531 50 360 50 l 531 1 q 299 63 406 1 q 131 231 193 125 q 69 464 69 338 l 118 464 m 579 50 q 872 172 751 50 q 993 464 993 293 l 1042 464 q 980 231 1042 338 q 812 63 918 125 q 579 1 706 1 l 579 50 m 69 513 q 131 744 69 638 q 299 912 193 850 q 531 974 406 974 l 531 925 q 239 804 360 925 q 118 513 118 683 l 69 513 z "},"Õ":{"ha":1111,"x_min":68,"x_max":1042,"o":"m 993 513 q 872 804 993 683 q 579 925 751 925 l 579 974 q 812 912 706 974 q 980 744 918 850 q 1042 513 1042 638 l 993 513 m 118 464 q 239 172 118 293 q 531 50 360 50 l 531 1 q 299 63 406 1 q 131 231 193 125 q 69 464 69 338 l 118 464 m 579 50 q 872 172 751 50 q 993 464 993 293 l 1042 464 q 980 231 1042 338 q 812 63 918 125 q 579 1 706 1 l 579 50 m 69 513 q 131 744 69 638 q 299 912 193 850 q 531 974 406 974 l 531 925 q 239 804 360 925 q 118 513 118 683 l 69 513 z "},"Ö":{"ha":1111,"x_min":68,"x_max":1042,"o":"m 993 513 q 872 804 993 683 q 579 925 751 925 l 579 974 q 812 912 706 974 q 980 744 918 850 q 1042 513 1042 638 l 993 513 m 118 464 q 239 172 118 293 q 531 50 360 50 l 531 1 q 299 63 406 1 q 131 231 193 125 q 69 464 69 338 l 118 464 m 579 50 q 872 172 751 50 q 993 464 993 293 l 1042 464 q 980 231 1042 338 q 812 63 918 125 q 579 1 706 1 l 579 50 m 69 513 q 131 744 69 638 q 299 912 193 850 q 531 974 406 974 l 531 925 q 239 804 360 925 q 118 513 118 683 l 69 513 z "},"Ø":{"ha":1111,"x_min":68,"x_max":1042,"o":"m 993 513 q 872 804 993 683 q 579 925 751 925 l 579 974 q 812 912 706 974 q 980 744 918 850 q 1042 513 1042 638 l 993 513 m 118 464 q 239 172 118 293 q 531 50 360 50 l 531 1 q 299 63 406 1 q 131 231 193 125 q 69 464 69 338 l 118 464 m 579 50 q 872 172 751 50 q 993 464 993 293 l 1042 464 q 980 231 1042 338 q 812 63 918 125 q 579 1 706 1 l 579 50 m 69 513 q 131 744 69 638 q 299 912 193 850 q 531 974 406 974 l 531 925 q 239 804 360 925 q 118 513 118 683 l 69 513 z "},"P":{"ha":1111,"x_min":69,"x_max":1042,"o":"m 118 1 l 69 1 l 69 464 l 118 464 l 118 1 m 799 974 q 971 899 900 974 q 1042 719 1042 824 q 971 539 1042 614 q 799 464 900 464 l 167 464 l 167 513 l 799 513 q 936 573 879 513 q 993 719 993 633 q 936 865 993 806 q 799 925 879 925 l 579 925 l 579 974 l 799 974 m 531 974 l 531 925 l 118 925 l 118 513 l 69 513 l 69 974 l 531 974 z "},"Q":{"ha":1111,"x_min":68,"x_max":1042,"o":"m 993 508 q 872 800 993 679 q 579 921 751 921 l 579 969 q 812 908 706 969 q 980 740 918 846 q 1042 508 1042 633 l 993 508 m 118 460 q 239 167 118 289 q 531 46 360 46 l 531 -3 q 299 59 406 -3 q 131 227 193 121 q 69 460 69 333 l 118 460 m 993 460 l 1042 460 q 924 150 1042 282 l 1040 33 l 1006 -1 l 889 117 q 579 -3 757 -3 l 579 46 q 854 150 738 46 l 628 378 l 663 411 l 889 185 q 993 460 993 303 m 69 508 q 131 740 69 633 q 299 908 193 846 q 531 969 406 969 l 531 921 q 239 800 360 921 q 118 508 118 679 l 69 508 z "},"R":{"ha":1111,"x_min":69,"x_max":1042,"o":"m 118 -3 l 69 -3 l 69 460 l 118 460 l 118 -3 m 531 969 l 531 921 l 118 921 l 118 508 l 69 508 l 69 969 l 531 969 m 1040 33 l 1007 -1 l 628 378 l 663 411 l 1040 33 m 971 894 q 1006 857 971 894 q 1042 715 1042 819 q 971 535 1042 610 q 799 460 900 460 l 167 460 l 167 508 l 799 508 q 936 569 879 508 q 993 715 993 629 q 936 860 993 800 q 799 921 879 921 l 579 921 l 579 969 l 799 969 q 971 894 900 969 z "},"S":{"ha":1111,"x_min":69,"x_max":1043,"o":"m 532 1 l 69 1 l 69 50 l 532 50 l 532 1 m 799 513 q 971 438 900 513 q 1042 257 1042 363 q 971 76 1042 151 q 799 1 900 1 l 579 1 l 579 50 l 799 50 q 936 110 879 50 q 993 257 993 171 q 936 403 993 343 q 799 464 879 464 l 313 464 q 140 539 211 464 q 69 719 69 614 q 140 899 69 824 q 313 974 211 974 l 532 974 l 532 925 l 313 925 q 175 865 232 925 q 118 719 118 806 q 175 573 118 633 q 313 513 232 513 l 799 513 m 1042 925 l 579 925 l 579 974 l 1042 974 l 1042 925 z "},"T":{"ha":1111,"x_min":69,"x_max":1042,"o":"m 531 925 l 69 925 l 69 974 l 531 974 l 531 925 m 1042 925 l 579 925 l 579 974 l 1042 974 l 1042 925 m 579 1 l 532 1 l 532 876 l 579 876 l 579 1 z "},"U":{"ha":1111,"x_min":69,"x_max":1042,"o":"m 118 508 l 69 508 l 69 969 l 118 969 l 118 508 m 118 460 q 239 167 118 289 q 531 46 360 46 l 531 -3 q 299 59 406 -3 q 131 227 193 121 q 69 460 69 333 l 118 460 m 1042 508 l 993 508 l 993 969 l 1042 969 l 1042 508 m 579 -3 l 579 46 q 872 167 751 46 q 993 460 993 289 l 1042 460 q 980 227 1042 333 q 812 59 918 121 q 579 -3 706 -3 z "},"Ù":{"ha":1111,"x_min":69,"x_max":1042,"o":"m 118 508 l 69 508 l 69 969 l 118 969 l 118 508 m 118 460 q 239 167 118 289 q 531 46 360 46 l 531 -3 q 299 59 406 -3 q 131 227 193 121 q 69 460 69 333 l 118 460 m 1042 508 l 993 508 l 993 969 l 1042 969 l 1042 508 m 579 -3 l 579 46 q 872 167 751 46 q 993 460 993 289 l 1042 460 q 980 227 1042 333 q 812 59 918 121 q 579 -3 706 -3 z "},"Ú":{"ha":1111,"x_min":69,"x_max":1042,"o":"m 118 508 l 69 508 l 69 969 l 118 969 l 118 508 m 118 460 q 239 167 118 289 q 531 46 360 46 l 531 -3 q 299 59 406 -3 q 131 227 193 121 q 69 460 69 333 l 118 460 m 1042 508 l 993 508 l 993 969 l 1042 969 l 1042 508 m 579 -3 l 579 46 q 872 167 751 46 q 993 460 993 289 l 1042 460 q 980 227 1042 333 q 812 59 918 121 q 579 -3 706 -3 z "},"Û":{"ha":1111,"x_min":69,"x_max":1042,"o":"m 118 508 l 69 508 l 69 969 l 118 969 l 118 508 m 118 460 q 239 167 118 289 q 531 46 360 46 l 531 -3 q 299 59 406 -3 q 131 227 193 121 q 69 460 69 333 l 118 460 m 1042 508 l 993 508 l 993 969 l 1042 969 l 1042 508 m 579 -3 l 579 46 q 872 167 751 46 q 993 460 993 289 l 1042 460 q 980 227 1042 333 q 812 59 918 121 q 579 -3 706 -3 z "},"Ü":{"ha":1111,"x_min":69,"x_max":1042,"o":"m 118 508 l 69 508 l 69 969 l 118 969 l 118 508 m 118 460 q 239 167 118 289 q 531 46 360 46 l 531 -3 q 299 59 406 -3 q 131 227 193 121 q 69 460 69 333 l 118 460 m 1042 508 l 993 508 l 993 969 l 1042 969 l 1042 508 m 579 -3 l 579 46 q 872 167 751 46 q 993 460 993 289 l 1042 460 q 980 227 1042 333 q 812 59 918 121 q 579 -3 706 -3 z "},"V":{"ha":1111,"x_min":69,"x_max":1042,"o":"m 531 38 l 496 3 l 71 428 l 104 463 l 531 38 m 118 513 l 69 513 l 69 974 l 118 974 l 118 513 m 1039 428 l 614 3 l 579 38 l 1004 463 l 1039 428 m 1042 513 l 993 513 l 993 974 l 1042 974 l 1042 513 z "},"W":{"ha":1111,"x_min":69,"x_max":1042,"o":"m 118 460 q 239 167 118 289 q 532 46 360 46 l 532 -3 q 299 59 406 -3 q 131 227 193 121 q 69 460 69 333 l 118 460 m 118 508 l 69 508 l 69 969 l 118 969 l 118 508 m 579 240 l 531 240 l 531 969 l 579 969 l 579 240 m 581 -3 l 581 46 q 872 167 751 46 q 993 460 993 289 l 1042 460 q 980 227 1042 333 q 812 59 918 121 q 581 -3 706 -3 m 1042 508 l 993 508 l 993 969 l 1042 969 l 1042 508 z "},"X":{"ha":1111,"x_min":69,"x_max":1042,"o":"m 1040 939 l 104 3 l 71 38 l 1006 974 l 1040 939 m 483 594 l 449 560 l 69 939 l 104 974 l 483 594 m 1040 38 l 1006 3 l 628 382 l 661 417 l 1040 38 z "},"Y":{"ha":1111,"x_min":69,"x_max":1042,"o":"m 531 557 l 531 508 q 299 570 406 508 q 131 738 193 632 q 69 969 69 844 l 118 969 q 239 678 118 799 q 531 557 360 557 m 993 969 l 1042 969 q 980 738 1042 844 q 812 570 918 632 q 579 508 706 508 l 579 557 q 872 678 751 557 q 993 969 993 799 m 579 -3 l 531 -3 l 531 460 l 579 460 l 579 -3 z "},"Ý":{"ha":1111,"x_min":69,"x_max":1042,"o":"m 531 557 l 531 508 q 299 570 406 508 q 131 738 193 632 q 69 969 69 844 l 118 969 q 239 678 118 799 q 531 557 360 557 m 993 969 l 1042 969 q 980 738 1042 844 q 812 570 918 632 q 579 508 706 508 l 579 557 q 872 678 751 557 q 993 969 993 799 m 579 -3 l 531 -3 l 531 460 l 579 460 l 579 -3 z "},"Ÿ":{"ha":1111,"x_min":69,"x_max":1042,"o":"m 531 557 l 531 508 q 299 570 406 508 q 131 738 193 632 q 69 969 69 844 l 118 969 q 239 678 118 799 q 531 557 360 557 m 993 969 l 1042 969 q 980 738 1042 844 q 812 570 918 632 q 579 508 706 508 l 579 557 q 872 678 751 557 q 993 969 993 799 m 579 -3 l 531 -3 l 531 460 l 579 460 l 579 -3 z "},"Z":{"ha":1111,"x_min":69,"x_max":1042,"o":"m 531 -3 l 69 -3 l 69 46 l 531 46 l 531 -3 m 942 835 l 204 99 l 169 132 l 907 869 l 942 835 m 531 921 l 69 921 l 69 969 l 531 969 l 531 921 m 1042 -3 l 579 -3 l 579 46 l 1042 46 l 1042 -3 m 1042 921 l 579 921 l 579 969 l 1042 969 l 1042 921 z "},"[":{"ha":649,"x_min":69,"x_max":581,"o":"m 69 972 l 579 972 l 579 924 l 118 924 l 118 510 l 69 510 l 69 972 m 69 0 l 69 463 l 118 463 l 118 49 l 579 49 l 579 0 l 69 0 z "},"\\":{"ha":1111,"x_min":71,"x_max":1042,"o":"m 1040 35 l 1007 0 l 71 936 l 106 969 l 1040 35 z "},"]":{"ha":649,"x_min":69,"x_max":581,"o":"m 531 511 l 531 924 l 69 924 l 69 972 l 579 972 l 579 511 l 531 511 m 531 49 l 531 461 l 579 461 l 579 0 l 69 0 l 69 49 l 531 49 z "},"^":{"ha":1111,"x_min":71,"x_max":1042,"o":"m 496 974 l 531 939 l 106 514 l 71 549 l 496 974 m 581 939 l 615 974 l 1040 549 l 1007 514 l 581 939 z "},"_":{"ha":1111,"x_min":69,"x_max":1042,"o":"m 1042 0 l 69 0 l 69 49 l 1042 49 l 1042 0 z "},"a":{"ha":1111,"x_min":69,"x_max":1042,"o":"m 993 513 q 872 804 993 683 q 579 925 751 925 l 579 974 q 812 912 706 974 q 980 744 918 850 q 1042 513 1042 638 l 993 513 m 531 925 q 239 804 360 925 q 118 513 118 683 l 69 513 q 131 744 69 638 q 299 912 193 850 q 531 974 406 974 l 531 925 m 118 1 l 69 1 l 69 464 l 118 464 l 118 1 m 1042 1 l 993 1 l 993 464 l 1042 464 l 1042 1 m 944 464 l 167 464 l 167 513 l 944 513 l 944 464 z "},"à":{"ha":1111,"x_min":69,"x_max":1042,"o":"m 993 513 q 872 804 993 683 q 579 925 751 925 l 579 974 q 812 912 706 974 q 980 744 918 850 q 1042 513 1042 638 l 993 513 m 531 925 q 239 804 360 925 q 118 513 118 683 l 69 513 q 131 744 69 638 q 299 912 193 850 q 531 974 406 974 l 531 925 m 118 1 l 69 1 l 69 464 l 118 464 l 118 1 m 1042 1 l 993 1 l 993 464 l 1042 464 l 1042 1 m 944 464 l 167 464 l 167 513 l 944 513 l 944 464 z "},"á":{"ha":1111,"x_min":69,"x_max":1042,"o":"m 993 513 q 872 804 993 683 q 579 925 751 925 l 579 974 q 812 912 706 974 q 980 744 918 850 q 1042 513 1042 638 l 993 513 m 531 925 q 239 804 360 925 q 118 513 118 683 l 69 513 q 131 744 69 638 q 299 912 193 850 q 531 974 406 974 l 531 925 m 118 1 l 69 1 l 69 464 l 118 464 l 118 1 m 1042 1 l 993 1 l 993 464 l 1042 464 l 1042 1 m 944 464 l 167 464 l 167 513 l 944 513 l 944 464 z "},"â":{"ha":1111,"x_min":69,"x_max":1042,"o":"m 993 513 q 872 804 993 683 q 579 925 751 925 l 579 974 q 812 912 706 974 q 980 744 918 850 q 1042 513 1042 638 l 993 513 m 531 925 q 239 804 360 925 q 118 513 118 683 l 69 513 q 131 744 69 638 q 299 912 193 850 q 531 974 406 974 l 531 925 m 118 1 l 69 1 l 69 464 l 118 464 l 118 1 m 1042 1 l 993 1 l 993 464 l 1042 464 l 1042 1 m 944 464 l 167 464 l 167 513 l 944 513 l 944 464 z "},"ã":{"ha":1111,"x_min":69,"x_max":1042,"o":"m 993 513 q 872 804 993 683 q 579 925 751 925 l 579 974 q 812 912 706 974 q 980 744 918 850 q 1042 513 1042 638 l 993 513 m 531 925 q 239 804 360 925 q 118 513 118 683 l 69 513 q 131 744 69 638 q 299 912 193 850 q 531 974 406 974 l 531 925 m 118 1 l 69 1 l 69 464 l 118 464 l 118 1 m 1042 1 l 993 1 l 993 464 l 1042 464 l 1042 1 m 944 464 l 167 464 l 167 513 l 944 513 l 944 464 z "},"ä":{"ha":1111,"x_min":69,"x_max":1042,"o":"m 993 513 q 872 804 993 683 q 579 925 751 925 l 579 974 q 812 912 706 974 q 980 744 918 850 q 1042 513 1042 638 l 993 513 m 531 925 q 239 804 360 925 q 118 513 118 683 l 69 513 q 131 744 69 638 q 299 912 193 850 q 531 974 406 974 l 531 925 m 118 1 l 69 1 l 69 464 l 118 464 l 118 1 m 1042 1 l 993 1 l 993 464 l 1042 464 l 1042 1 m 944 464 l 167 464 l 167 513 l 944 513 l 944 464 z "},"å":{"ha":1111,"x_min":69,"x_max":1042,"o":"m 993 513 q 872 804 993 683 q 579 925 751 925 l 579 974 q 812 912 706 974 q 980 744 918 850 q 1042 513 1042 638 l 993 513 m 531 925 q 239 804 360 925 q 118 513 118 683 l 69 513 q 131 744 69 638 q 299 912 193 850 q 531 974 406 974 l 531 925 m 118 1 l 69 1 l 69 464 l 118 464 l 118 1 m 1042 1 l 993 1 l 993 464 l 1042 464 l 1042 1 m 944 464 l 167 464 l 167 513 l 944 513 l 944 464 z "},"b":{"ha":1111,"x_min":69,"x_max":1042,"o":"m 118 464 l 118 50 l 531 50 l 531 1 l 69 1 l 69 464 l 118 464 m 69 513 l 69 974 l 531 974 l 531 925 l 118 925 l 118 513 l 69 513 m 903 488 q 1003 394 965 457 q 1042 257 1042 332 q 971 76 1042 151 q 799 1 900 1 l 579 1 l 579 50 l 799 50 q 936 110 879 50 q 993 257 993 171 q 936 403 993 343 q 799 464 879 464 l 579 464 l 579 513 l 799 513 q 936 573 879 513 q 993 719 993 633 q 936 865 993 806 q 799 925 879 925 l 579 925 l 579 974 l 799 974 q 971 899 900 974 q 1042 719 1042 824 q 1003 582 1042 644 q 903 488 965 519 z "},"c":{"ha":1111,"x_min":69,"x_max":1042,"o":"m 69 513 q 131 744 69 638 q 299 912 193 850 q 532 974 406 974 l 532 925 q 239 804 360 925 q 118 513 118 683 l 69 513 m 118 464 q 239 172 118 293 q 532 50 360 50 l 532 1 q 299 63 406 1 q 131 232 193 125 q 69 464 69 339 l 118 464 m 1042 1 l 579 1 l 579 50 l 1042 50 l 1042 1 m 1042 925 l 579 925 l 579 974 l 1042 974 l 1042 925 z "},"ç":{"ha":1111,"x_min":69,"x_max":1042,"o":"m 69 513 q 131 744 69 638 q 299 912 193 850 q 532 974 406 974 l 532 925 q 239 804 360 925 q 118 513 118 683 l 69 513 m 118 464 q 239 172 118 293 q 532 50 360 50 l 532 1 q 299 63 406 1 q 131 232 193 125 q 69 464 69 339 l 118 464 m 1042 1 l 579 1 l 579 50 l 1042 50 l 1042 1 m 1042 925 l 579 925 l 579 974 l 1042 974 l 1042 925 z "},"d":{"ha":1111,"x_min":69,"x_max":1042,"o":"m 579 50 q 872 172 751 50 q 993 464 993 293 l 1042 464 q 980 231 1042 338 q 812 63 918 125 q 579 1 706 1 l 579 50 m 993 513 q 872 804 993 683 q 579 925 751 925 l 579 974 q 812 912 706 974 q 980 744 918 850 q 1042 513 1042 638 l 993 513 m 118 464 l 118 50 l 532 50 l 532 1 l 69 1 l 69 464 l 118 464 m 69 513 l 69 974 l 532 974 l 532 925 l 118 925 l 118 513 l 69 513 z "},"e":{"ha":1111,"x_min":69,"x_max":1042,"o":"m 532 969 l 532 921 q 239 800 360 921 q 118 508 118 679 l 69 508 q 131 740 69 633 q 299 908 193 846 q 532 969 406 969 m 1042 -3 l 579 -3 l 579 46 l 1042 46 l 1042 -3 m 118 460 q 239 167 118 289 q 532 46 360 46 l 532 -3 q 299 59 406 -3 q 131 227 193 121 q 69 460 69 333 l 118 460 m 1042 921 l 579 921 l 579 969 l 1042 969 l 1042 921 m 1042 460 l 313 460 l 313 508 l 1042 508 l 1042 460 z "},"è":{"ha":1111,"x_min":69,"x_max":1042,"o":"m 532 969 l 532 921 q 239 800 360 921 q 118 508 118 679 l 69 508 q 131 740 69 633 q 299 908 193 846 q 532 969 406 969 m 1042 -3 l 579 -3 l 579 46 l 1042 46 l 1042 -3 m 118 460 q 239 167 118 289 q 532 46 360 46 l 532 -3 q 299 59 406 -3 q 131 227 193 121 q 69 460 69 333 l 118 460 m 1042 921 l 579 921 l 579 969 l 1042 969 l 1042 921 m 1042 460 l 313 460 l 313 508 l 1042 508 l 1042 460 z "},"é":{"ha":1111,"x_min":69,"x_max":1042,"o":"m 532 969 l 532 921 q 239 800 360 921 q 118 508 118 679 l 69 508 q 131 740 69 633 q 299 908 193 846 q 532 969 406 969 m 1042 -3 l 579 -3 l 579 46 l 1042 46 l 1042 -3 m 118 460 q 239 167 118 289 q 532 46 360 46 l 532 -3 q 299 59 406 -3 q 131 227 193 121 q 69 460 69 333 l 118 460 m 1042 921 l 579 921 l 579 969 l 1042 969 l 1042 921 m 1042 460 l 313 460 l 313 508 l 1042 508 l 1042 460 z "},"ê":{"ha":1111,"x_min":69,"x_max":1042,"o":"m 532 969 l 532 921 q 239 800 360 921 q 118 508 118 679 l 69 508 q 131 740 69 633 q 299 908 193 846 q 532 969 406 969 m 1042 -3 l 579 -3 l 579 46 l 1042 46 l 1042 -3 m 118 460 q 239 167 118 289 q 532 46 360 46 l 532 -3 q 299 59 406 -3 q 131 227 193 121 q 69 460 69 333 l 118 460 m 1042 921 l 579 921 l 579 969 l 1042 969 l 1042 921 m 1042 460 l 313 460 l 313 508 l 1042 508 l 1042 460 z "},"ë":{"ha":1111,"x_min":69,"x_max":1042,"o":"m 532 969 l 532 921 q 239 800 360 921 q 118 508 118 679 l 69 508 q 131 740 69 633 q 299 908 193 846 q 532 969 406 969 m 1042 -3 l 579 -3 l 579 46 l 1042 46 l 1042 -3 m 118 460 q 239 167 118 289 q 532 46 360 46 l 532 -3 q 299 59 406 -3 q 131 227 193 121 q 69 460 69 333 l 118 460 m 1042 921 l 579 921 l 579 969 l 1042 969 l 1042 921 m 1042 460 l 313 460 l 313 508 l 1042 508 l 1042 460 z "},"f":{"ha":1111,"x_min":69,"x_max":1042,"o":"m 118 1 l 69 1 l 69 464 l 118 464 l 118 1 m 532 974 l 532 925 q 239 804 360 925 q 118 513 118 683 l 69 513 q 131 744 69 638 q 299 912 193 850 q 532 974 406 974 m 1042 925 l 579 925 l 579 974 l 1042 974 l 1042 925 m 1042 464 l 313 464 l 313 513 l 1042 513 l 1042 464 z "},"g":{"ha":1111,"x_min":69,"x_max":1042,"o":"m 118 464 q 239 172 118 293 q 532 50 360 50 l 532 1 q 299 63 406 1 q 131 232 193 125 q 69 464 69 339 l 118 464 m 69 513 q 131 744 69 638 q 299 912 193 850 q 531 974 406 974 l 531 925 q 239 804 360 925 q 118 513 118 683 l 69 513 m 581 464 l 581 513 l 1042 513 l 1042 464 q 980 231 1042 338 q 812 63 918 125 q 581 1 706 1 l 581 50 q 872 172 751 50 q 993 464 993 293 l 581 464 m 1042 925 l 581 925 l 581 974 l 1042 974 l 1042 925 z "},"h":{"ha":1111,"x_min":69,"x_max":1042,"o":"m 118 -3 l 69 -3 l 69 460 l 118 460 l 118 -3 m 118 508 l 69 508 l 69 969 l 118 969 l 118 508 m 1042 -3 l 993 -3 l 993 460 l 1042 460 l 1042 -3 m 944 460 l 167 460 l 167 508 l 944 508 l 944 460 m 1042 508 l 993 508 l 993 969 l 1042 969 l 1042 508 z "},"i":{"ha":1111,"x_min":69,"x_max":1042,"o":"m 531 921 l 69 921 l 69 969 l 531 969 l 531 921 m 531 -3 l 69 -3 l 69 46 l 531 46 l 531 -3 m 1042 -3 l 579 -3 l 579 46 l 1042 46 l 1042 -3 m 1042 921 l 579 921 l 579 969 l 1042 969 l 1042 921 m 579 94 l 531 94 l 531 872 l 579 872 l 579 94 z "},"ì":{"ha":1111,"x_min":69,"x_max":1042,"o":"m 531 921 l 69 921 l 69 969 l 531 969 l 531 921 m 531 -3 l 69 -3 l 69 46 l 531 46 l 531 -3 m 1042 -3 l 579 -3 l 579 46 l 1042 46 l 1042 -3 m 1042 921 l 579 921 l 579 969 l 1042 969 l 1042 921 m 579 94 l 531 94 l 531 872 l 579 872 l 579 94 z "},"í":{"ha":1111,"x_min":69,"x_max":1042,"o":"m 531 921 l 69 921 l 69 969 l 531 969 l 531 921 m 531 -3 l 69 -3 l 69 46 l 531 46 l 531 -3 m 1042 -3 l 579 -3 l 579 46 l 1042 46 l 1042 -3 m 1042 921 l 579 921 l 579 969 l 1042 969 l 1042 921 m 579 94 l 531 94 l 531 872 l 579 872 l 579 94 z "},"î":{"ha":1111,"x_min":69,"x_max":1042,"o":"m 531 921 l 69 921 l 69 969 l 531 969 l 531 921 m 531 -3 l 69 -3 l 69 46 l 531 46 l 531 -3 m 1042 -3 l 579 -3 l 579 46 l 1042 46 l 1042 -3 m 1042 921 l 579 921 l 579 969 l 1042 969 l 1042 921 m 579 94 l 531 94 l 531 872 l 579 872 l 579 94 z "},"ï":{"ha":1111,"x_min":69,"x_max":1042,"o":"m 531 921 l 69 921 l 69 969 l 531 969 l 531 921 m 531 -3 l 69 -3 l 69 46 l 531 46 l 531 -3 m 1042 -3 l 579 -3 l 579 46 l 1042 46 l 1042 -3 m 1042 921 l 579 921 l 579 969 l 1042 969 l 1042 921 m 579 94 l 531 94 l 531 872 l 579 872 l 579 94 z "},"j":{"ha":1111,"x_min":69,"x_max":1042,"o":"m 118 460 q 239 167 118 289 q 531 46 360 46 l 531 -3 q 299 59 406 -3 q 131 227 193 121 q 69 460 69 333 l 118 460 m 579 -3 l 579 46 q 872 167 751 46 q 993 460 993 289 l 1042 460 q 980 227 1042 333 q 812 59 918 121 q 579 -3 706 -3 m 1042 508 l 993 508 l 993 969 l 1042 969 l 1042 508 z "},"k":{"ha":1111,"x_min":68,"x_max":1042,"o":"m 118 -3 l 69 -3 l 69 460 l 118 460 l 118 -3 m 688 483 q 942 300 843 433 q 1042 -3 1042 167 l 993 -3 q 931 230 993 124 q 763 398 869 336 q 532 460 657 460 l 167 460 l 167 508 l 532 508 q 763 570 657 508 q 931 738 869 632 q 993 969 993 844 l 1042 969 q 942 667 1042 801 q 688 483 843 533 m 118 508 l 69 508 l 69 969 l 118 969 l 118 508 z "},"l":{"ha":1111,"x_min":69,"x_max":1042,"o":"m 118 513 l 69 513 l 69 974 l 118 974 l 118 513 m 118 464 l 118 50 l 532 50 l 532 1 l 69 1 l 69 464 l 118 464 m 1042 1 l 579 1 l 579 50 l 1042 50 l 1042 1 z "},"m":{"ha":1111,"x_min":69,"x_max":1042,"o":"m 579 -3 l 531 -3 l 531 726 l 579 726 l 579 -3 m 531 969 l 531 921 q 239 800 360 921 q 118 508 118 679 l 69 508 q 131 740 69 633 q 299 908 193 846 q 531 969 406 969 m 118 -3 l 69 -3 l 69 460 l 118 460 l 118 -3 m 1042 -3 l 993 -3 l 993 460 l 1042 460 l 1042 -3 m 1042 508 l 993 508 q 872 800 993 679 q 579 921 751 921 l 579 969 q 812 908 706 969 q 980 740 918 846 q 1042 508 1042 633 z "},"n":{"ha":1111,"x_min":69,"x_max":1042,"o":"m 118 -3 l 69 -3 l 69 460 l 118 460 l 118 -3 m 69 508 q 131 740 69 633 q 299 908 193 846 q 531 969 406 969 l 531 921 q 239 800 360 921 q 118 508 118 679 l 69 508 m 1042 508 l 993 508 q 872 800 993 679 q 579 921 751 921 l 579 969 q 812 908 706 969 q 980 740 918 846 q 1042 508 1042 633 m 1042 -3 l 993 -3 l 993 460 l 1042 460 l 1042 -3 z "},"ñ":{"ha":1111,"x_min":69,"x_max":1042,"o":"m 118 -3 l 69 -3 l 69 460 l 118 460 l 118 -3 m 69 508 q 131 740 69 633 q 299 908 193 846 q 531 969 406 969 l 531 921 q 239 800 360 921 q 118 508 118 679 l 69 508 m 1042 508 l 993 508 q 872 800 993 679 q 579 921 751 921 l 579 969 q 812 908 706 969 q 980 740 918 846 q 1042 508 1042 633 m 1042 -3 l 993 -3 l 993 460 l 1042 460 l 1042 -3 z "},"o":{"ha":1111,"x_min":76,"x_max":1050,"o":"m 125 464 q 247 172 125 293 q 539 50 368 50 l 539 1 q 307 63 414 1 q 139 231 200 125 q 78 464 78 338 l 125 464 m 1000 513 q 879 804 1000 683 q 588 925 758 925 l 588 974 q 819 912 713 974 q 987 744 925 850 q 1049 513 1049 638 l 1000 513 m 76 513 q 138 744 76 638 q 307 912 200 850 q 539 974 414 974 l 539 925 q 247 804 368 925 q 125 513 125 683 l 76 513 m 588 50 q 879 172 758 50 q 1000 464 1000 293 l 1049 464 q 987 231 1049 338 q 819 63 925 125 q 588 1 713 1 l 588 50 z "},"ò":{"ha":1111,"x_min":76,"x_max":1050,"o":"m 125 464 q 247 172 125 293 q 539 50 368 50 l 539 1 q 307 63 414 1 q 139 231 200 125 q 78 464 78 338 l 125 464 m 1000 513 q 879 804 1000 683 q 588 925 758 925 l 588 974 q 819 912 713 974 q 987 744 925 850 q 1049 513 1049 638 l 1000 513 m 76 513 q 138 744 76 638 q 307 912 200 850 q 539 974 414 974 l 539 925 q 247 804 368 925 q 125 513 125 683 l 76 513 m 588 50 q 879 172 758 50 q 1000 464 1000 293 l 1049 464 q 987 231 1049 338 q 819 63 925 125 q 588 1 713 1 l 588 50 z "},"ó":{"ha":1111,"x_min":76,"x_max":1050,"o":"m 125 464 q 247 172 125 293 q 539 50 368 50 l 539 1 q 307 63 414 1 q 139 231 200 125 q 78 464 78 338 l 125 464 m 1000 513 q 879 804 1000 683 q 588 925 758 925 l 588 974 q 819 912 713 974 q 987 744 925 850 q 1049 513 1049 638 l 1000 513 m 76 513 q 138 744 76 638 q 307 912 200 850 q 539 974 414 974 l 539 925 q 247 804 368 925 q 125 513 125 683 l 76 513 m 588 50 q 879 172 758 50 q 1000 464 1000 293 l 1049 464 q 987 231 1049 338 q 819 63 925 125 q 588 1 713 1 l 588 50 z "},"ô":{"ha":1111,"x_min":76,"x_max":1050,"o":"m 125 464 q 247 172 125 293 q 539 50 368 50 l 539 1 q 307 63 414 1 q 139 231 200 125 q 78 464 78 338 l 125 464 m 1000 513 q 879 804 1000 683 q 588 925 758 925 l 588 974 q 819 912 713 974 q 987 744 925 850 q 1049 513 1049 638 l 1000 513 m 76 513 q 138 744 76 638 q 307 912 200 850 q 539 974 414 974 l 539 925 q 247 804 368 925 q 125 513 125 683 l 76 513 m 588 50 q 879 172 758 50 q 1000 464 1000 293 l 1049 464 q 987 231 1049 338 q 819 63 925 125 q 588 1 713 1 l 588 50 z "},"õ":{"ha":1111,"x_min":76,"x_max":1050,"o":"m 125 464 q 247 172 125 293 q 539 50 368 50 l 539 1 q 307 63 414 1 q 139 231 200 125 q 78 464 78 338 l 125 464 m 1000 513 q 879 804 1000 683 q 588 925 758 925 l 588 974 q 819 912 713 974 q 987 744 925 850 q 1049 513 1049 638 l 1000 513 m 76 513 q 138 744 76 638 q 307 912 200 850 q 539 974 414 974 l 539 925 q 247 804 368 925 q 125 513 125 683 l 76 513 m 588 50 q 879 172 758 50 q 1000 464 1000 293 l 1049 464 q 987 231 1049 338 q 819 63 925 125 q 588 1 713 1 l 588 50 z "},"ö":{"ha":1111,"x_min":76,"x_max":1050,"o":"m 125 464 q 247 172 125 293 q 539 50 368 50 l 539 1 q 307 63 414 1 q 139 231 200 125 q 78 464 78 338 l 125 464 m 1000 513 q 879 804 1000 683 q 588 925 758 925 l 588 974 q 819 912 713 974 q 987 744 925 850 q 1049 513 1049 638 l 1000 513 m 76 513 q 138 744 76 638 q 307 912 200 850 q 539 974 414 974 l 539 925 q 247 804 368 925 q 125 513 125 683 l 76 513 m 588 50 q 879 172 758 50 q 1000 464 1000 293 l 1049 464 q 987 231 1049 338 q 819 63 925 125 q 588 1 713 1 l 588 50 z "},"ø":{"ha":1111,"x_min":76,"x_max":1050,"o":"m 125 464 q 247 172 125 293 q 539 50 368 50 l 539 1 q 307 63 414 1 q 139 231 200 125 q 78 464 78 338 l 125 464 m 1000 513 q 879 804 1000 683 q 588 925 758 925 l 588 974 q 819 912 713 974 q 987 744 925 850 q 1049 513 1049 638 l 1000 513 m 76 513 q 138 744 76 638 q 307 912 200 850 q 539 974 414 974 l 539 925 q 247 804 368 925 q 125 513 125 683 l 76 513 m 588 50 q 879 172 758 50 q 1000 464 1000 293 l 1049 464 q 987 231 1049 338 q 819 63 925 125 q 588 1 713 1 l 588 50 z "},"p":{"ha":1111,"x_min":69,"x_max":1042,"o":"m 118 1 l 69 1 l 69 464 l 118 464 l 118 1 m 531 974 l 531 925 l 118 925 l 118 513 l 69 513 l 69 974 l 531 974 m 799 974 q 971 899 900 974 q 1042 719 1042 824 q 971 539 1042 614 q 799 464 900 464 l 167 464 l 167 513 l 799 513 q 936 573 879 513 q 993 719 993 633 q 936 865 993 806 q 799 925 879 925 l 579 925 l 579 974 l 799 974 z "},"q":{"ha":1111,"x_min":69,"x_max":1042,"o":"m 118 460 q 239 167 118 289 q 531 46 360 46 l 531 -3 q 299 59 406 -3 q 131 227 193 121 q 69 460 69 333 l 118 460 m 993 508 q 872 800 993 679 q 579 921 751 921 l 579 969 q 812 908 706 969 q 980 740 918 846 q 1042 508 1042 633 l 993 508 m 993 460 l 1042 460 q 924 150 1042 282 l 1040 33 l 1006 -1 l 889 117 q 579 -3 757 -3 l 579 46 q 854 150 738 46 l 628 378 l 663 411 l 889 185 q 993 460 993 303 m 69 508 q 131 740 69 633 q 299 908 193 846 q 531 969 406 969 l 531 921 q 239 800 360 921 q 118 508 118 679 l 69 508 z "},"r":{"ha":1111,"x_min":69,"x_max":1042,"o":"m 531 969 l 531 921 l 118 921 l 118 508 l 69 508 l 69 969 l 531 969 m 118 -3 l 69 -3 l 69 460 l 118 460 l 118 -3 m 1040 33 l 1007 -1 l 628 378 l 663 411 l 1040 33 m 971 894 q 1006 857 971 894 q 1042 715 1042 819 q 971 535 1042 610 q 799 460 900 460 l 167 460 l 167 508 l 799 508 q 936 569 879 508 q 993 715 993 629 q 936 860 993 800 q 799 921 879 921 l 579 921 l 579 969 l 799 969 q 971 894 900 969 z "},"s":{"ha":1111,"x_min":69,"x_max":1043,"o":"m 532 1 l 69 1 l 69 50 l 532 50 l 532 1 m 799 513 q 971 438 900 513 q 1042 257 1042 363 q 971 76 1042 151 q 799 1 900 1 l 579 1 l 579 50 l 799 50 q 936 110 879 50 q 993 257 993 171 q 936 403 993 343 q 799 464 879 464 l 313 464 q 140 539 211 464 q 69 719 69 614 q 140 899 69 824 q 313 974 211 974 l 532 974 l 532 925 l 313 925 q 175 865 232 925 q 118 719 118 806 q 175 573 118 633 q 313 513 232 513 l 799 513 m 1042 925 l 579 925 l 579 974 l 1042 974 l 1042 925 z "},"t":{"ha":1111,"x_min":69,"x_max":1042,"o":"m 531 925 l 69 925 l 69 974 l 531 974 l 531 925 m 579 1 l 532 1 l 532 876 l 579 876 l 579 1 m 1042 925 l 579 925 l 579 974 l 1042 974 l 1042 925 z "},"u":{"ha":1111,"x_min":69,"x_max":1042,"o":"m 118 508 l 69 508 l 69 969 l 118 969 l 118 508 m 118 460 q 239 167 118 289 q 531 46 360 46 l 531 -3 q 299 59 406 -3 q 131 227 193 121 q 69 460 69 333 l 118 460 m 579 -3 l 579 46 q 872 167 751 46 q 993 460 993 289 l 1042 460 q 980 227 1042 333 q 812 59 918 121 q 579 -3 706 -3 m 1042 508 l 993 508 l 993 969 l 1042 969 l 1042 508 z "},"ù":{"ha":1111,"x_min":69,"x_max":1042,"o":"m 118 508 l 69 508 l 69 969 l 118 969 l 118 508 m 118 460 q 239 167 118 289 q 531 46 360 46 l 531 -3 q 299 59 406 -3 q 131 227 193 121 q 69 460 69 333 l 118 460 m 579 -3 l 579 46 q 872 167 751 46 q 993 460 993 289 l 1042 460 q 980 227 1042 333 q 812 59 918 121 q 579 -3 706 -3 m 1042 508 l 993 508 l 993 969 l 1042 969 l 1042 508 z "},"ú":{"ha":1111,"x_min":69,"x_max":1042,"o":"m 118 508 l 69 508 l 69 969 l 118 969 l 118 508 m 118 460 q 239 167 118 289 q 531 46 360 46 l 531 -3 q 299 59 406 -3 q 131 227 193 121 q 69 460 69 333 l 118 460 m 579 -3 l 579 46 q 872 167 751 46 q 993 460 993 289 l 1042 460 q 980 227 1042 333 q 812 59 918 121 q 579 -3 706 -3 m 1042 508 l 993 508 l 993 969 l 1042 969 l 1042 508 z "},"û":{"ha":1111,"x_min":69,"x_max":1042,"o":"m 118 508 l 69 508 l 69 969 l 118 969 l 118 508 m 118 460 q 239 167 118 289 q 531 46 360 46 l 531 -3 q 299 59 406 -3 q 131 227 193 121 q 69 460 69 333 l 118 460 m 579 -3 l 579 46 q 872 167 751 46 q 993 460 993 289 l 1042 460 q 980 227 1042 333 q 812 59 918 121 q 579 -3 706 -3 m 1042 508 l 993 508 l 993 969 l 1042 969 l 1042 508 z "},"ü":{"ha":1111,"x_min":69,"x_max":1042,"o":"m 118 508 l 69 508 l 69 969 l 118 969 l 118 508 m 118 460 q 239 167 118 289 q 531 46 360 46 l 531 -3 q 299 59 406 -3 q 131 227 193 121 q 69 460 69 333 l 118 460 m 579 -3 l 579 46 q 872 167 751 46 q 993 460 993 289 l 1042 460 q 980 227 1042 333 q 812 59 918 121 q 579 -3 706 -3 m 1042 508 l 993 508 l 993 969 l 1042 969 l 1042 508 z "},"v":{"ha":1111,"x_min":69,"x_max":1042,"o":"m 118 513 l 69 513 l 69 974 l 118 974 l 118 513 m 1042 513 l 993 513 l 993 974 l 1042 974 l 1042 513 m 531 38 l 496 3 l 71 428 l 104 463 l 531 38 m 1039 428 l 614 3 l 579 38 l 1004 463 l 1039 428 z "},"w":{"ha":1111,"x_min":69,"x_max":1042,"o":"m 118 460 q 239 167 118 289 q 532 46 360 46 l 532 -3 q 299 59 406 -3 q 131 227 193 121 q 69 460 69 333 l 118 460 m 118 508 l 69 508 l 69 969 l 118 969 l 118 508 m 1042 508 l 993 508 l 993 969 l 1042 969 l 1042 508 m 581 -3 l 581 46 q 872 167 751 46 q 993 460 993 289 l 1042 460 q 980 227 1042 333 q 812 59 918 121 q 581 -3 706 -3 m 579 240 l 531 240 l 531 969 l 579 969 l 579 240 z "},"x":{"ha":1111,"x_min":69,"x_max":1042,"o":"m 483 594 l 449 560 l 69 939 l 104 974 l 483 594 m 1040 939 l 104 3 l 71 38 l 1006 974 l 1040 939 m 1040 38 l 1006 3 l 628 382 l 661 417 l 1040 38 z "},"y":{"ha":1111,"x_min":69,"x_max":1042,"o":"m 531 557 l 531 508 q 299 570 406 508 q 131 738 193 632 q 69 969 69 844 l 118 969 q 239 678 118 799 q 531 557 360 557 m 579 -3 l 531 -3 l 531 460 l 579 460 l 579 -3 m 993 969 l 1042 969 q 980 738 1042 844 q 812 570 918 632 q 579 508 706 508 l 579 557 q 872 678 751 557 q 993 969 993 799 z "},"ý":{"ha":1111,"x_min":69,"x_max":1042,"o":"m 531 557 l 531 508 q 299 570 406 508 q 131 738 193 632 q 69 969 69 844 l 118 969 q 239 678 118 799 q 531 557 360 557 m 579 -3 l 531 -3 l 531 460 l 579 460 l 579 -3 m 993 969 l 1042 969 q 980 738 1042 844 q 812 570 918 632 q 579 508 706 508 l 579 557 q 872 678 751 557 q 993 969 993 799 z "},"ÿ":{"ha":1111,"x_min":69,"x_max":1042,"o":"m 531 557 l 531 508 q 299 570 406 508 q 131 738 193 632 q 69 969 69 844 l 118 969 q 239 678 118 799 q 531 557 360 557 m 579 -3 l 531 -3 l 531 460 l 579 460 l 579 -3 m 993 969 l 1042 969 q 980 738 1042 844 q 812 570 918 632 q 579 508 706 508 l 579 557 q 872 678 751 557 q 993 969 993 799 z "},"z":{"ha":1111,"x_min":69,"x_max":1042,"o":"m 942 835 l 204 99 l 169 132 l 907 869 l 942 835 m 531 921 l 69 921 l 69 969 l 531 969 l 531 921 m 1042 -3 l 579 -3 l 579 46 l 1042 46 l 1042 -3 m 531 -3 l 69 -3 l 69 46 l 531 46 l 531 -3 m 1042 921 l 579 921 l 579 969 l 1042 969 l 1042 921 z "},"{":{"ha":551,"x_min":69,"x_max":483,"o":"m 300 742 q 233 578 300 646 q 69 510 165 510 l 69 560 q 198 613 144 560 q 251 742 251 665 q 319 905 251 838 q 482 972 388 972 l 482 924 q 353 870 407 924 q 300 742 300 817 m 69 413 l 69 463 q 233 394 165 463 q 300 231 300 326 q 353 102 300 156 q 482 49 407 49 l 482 0 q 319 67 388 0 q 251 231 251 135 q 198 360 251 307 q 69 413 144 413 z "},"|":{"ha":188,"x_min":69,"x_max":119,"o":"m 118 0 l 69 0 l 69 972 l 118 972 l 118 0 z "},"}":{"ha":551,"x_min":69,"x_max":483,"o":"m 251 742 q 198 870 251 817 q 69 924 144 924 l 69 972 q 233 905 165 972 q 300 742 300 838 q 353 612 300 665 q 482 558 407 558 l 482 510 q 319 578 388 510 q 251 742 251 646 m 482 463 l 482 413 q 353 360 407 413 q 300 231 300 307 q 233 67 300 135 q 69 0 165 0 l 69 49 q 198 102 144 49 q 251 231 251 156 q 319 394 251 326 q 482 463 388 463 z "},"~":{"ha":1111,"x_min":69,"x_max":1042,"o":"m 118 511 l 69 511 q 144 683 69 613 q 324 754 219 754 q 504 683 429 754 q 579 511 579 613 l 531 511 q 471 649 531 592 q 325 706 411 706 q 178 649 239 706 q 118 511 118 592 m 993 463 l 1042 463 q 967 290 1042 361 q 786 219 892 219 q 606 290 681 219 q 531 463 531 361 l 579 463 q 640 325 579 382 q 786 268 700 268 q 933 325 872 268 q 993 463 993 382 z "}," ":{"ha":556,"x_min":0,"x_max":0,"o":""},"­":{"ha":0,"x_min":0,"x_max":0,"o":""},"×":{"ha":1111,"x_min":69,"x_max":1042,"o":"m 1040 936 l 590 485 l 1040 35 l 1007 0 l 556 450 l 106 0 l 71 35 l 521 485 l 71 936 l 106 969 l 556 519 l 1007 969 l 1040 936 z "},"÷":{"ha":1111,"x_min":69,"x_max":1042,"o":"m 647 751 q 628 732 647 751 q 556 713 610 713 q 464 751 501 713 q 426 842 426 789 q 464 934 426 896 q 556 972 501 972 q 647 934 610 972 q 685 842 685 896 q 647 751 685 789 m 613 900 q 601 912 613 900 q 556 924 589 924 q 499 900 522 924 q 475 842 475 876 q 499 785 475 808 q 556 761 522 761 q 613 785 589 761 q 636 842 636 808 q 613 900 636 876 m 1042 461 l 69 461 l 69 510 l 1042 510 l 1042 461 m 464 222 q 483 241 464 222 q 556 260 501 260 q 647 222 610 260 q 685 130 685 183 q 647 38 685 76 q 556 0 610 0 q 464 38 501 0 q 426 130 426 76 q 464 222 426 183 m 499 72 q 510 60 499 72 q 556 49 522 49 q 613 72 589 49 q 636 129 636 96 q 613 187 636 163 q 556 211 589 211 q 499 187 522 211 q 475 129 475 163 q 499 72 475 96 z "},"‘":{"ha":399,"x_min":69,"x_max":329,"o":"m 199 871 q 291 833 253 871 q 329 741 329 794 q 291 649 329 688 q 199 611 253 611 q 108 649 146 611 q 69 740 69 688 q 138 906 69 838 q 304 975 207 975 l 304 926 q 167 867 222 926 q 199 871 183 871 m 142 683 q 153 672 142 683 q 199 660 165 660 q 256 683 232 660 q 281 741 281 707 q 256 799 281 775 q 199 822 232 822 q 142 799 165 822 q 118 741 118 775 q 142 683 118 707 z "},"’":{"ha":399,"x_min":69,"x_max":329,"o":"m 108 938 q 127 956 108 938 q 199 975 146 975 q 291 938 253 975 q 329 846 329 900 q 260 680 329 749 q 93 611 192 611 l 93 660 q 232 721 176 660 q 199 717 215 717 q 108 754 146 717 q 69 846 69 792 q 108 938 69 900 m 142 789 q 153 777 142 789 q 199 765 165 765 q 256 789 232 765 q 281 846 281 813 q 256 903 281 879 q 199 926 232 926 q 142 903 165 926 q 118 846 118 879 q 142 789 118 813 z "},"“":{"ha":722,"x_min":68,"x_max":654,"o":"m 199 871 q 291 833 253 871 q 329 741 329 794 q 291 649 329 688 q 199 611 253 611 q 108 649 146 611 q 69 740 69 688 q 138 907 69 838 q 304 976 207 976 l 304 928 q 167 867 222 928 q 199 871 183 871 m 142 683 q 153 672 142 683 q 199 660 165 660 q 256 683 232 660 q 281 741 281 707 q 256 799 281 775 q 199 822 232 822 q 142 799 165 822 q 118 741 118 775 q 142 683 118 707 m 524 871 q 615 833 576 871 q 653 741 653 794 q 615 649 653 688 q 523 611 576 611 q 431 649 469 611 q 393 740 393 688 q 462 907 393 838 q 629 976 531 976 l 629 926 q 490 867 546 926 q 524 871 507 871 m 465 683 q 477 672 465 683 q 523 660 489 660 q 581 683 557 660 q 604 741 604 707 q 581 799 604 775 q 523 822 557 822 q 465 799 489 822 q 442 741 442 775 q 465 683 442 707 z "},"”":{"ha":722,"x_min":69,"x_max":653,"o":"m 108 938 q 127 956 108 938 q 199 975 146 975 q 291 938 253 975 q 329 846 329 900 q 260 680 329 749 q 93 611 192 611 l 93 660 q 232 721 176 660 q 199 717 215 717 q 108 755 146 717 q 69 847 69 793 q 108 938 69 900 m 142 789 q 153 777 142 789 q 199 765 165 765 q 257 789 233 765 q 281 846 281 813 q 256 903 281 879 q 199 928 232 928 q 142 903 165 928 q 118 846 118 879 q 142 789 118 813 m 431 938 q 450 956 431 938 q 523 975 469 975 q 615 938 576 975 q 653 846 653 900 q 584 680 653 749 q 418 611 515 611 l 418 660 q 556 721 500 660 q 524 717 540 717 q 431 755 469 717 q 393 847 393 793 q 431 938 393 900 m 466 789 q 478 777 466 789 q 524 765 490 765 q 581 789 557 765 q 604 846 604 813 q 581 903 604 879 q 524 928 557 928 q 466 903 490 928 q 442 846 442 879 q 466 789 442 813 z "},"":{"ha":1111,"x_min":69,"x_max":1042,"o":"m 531 924 q 239 803 360 924 q 118 511 118 682 l 69 511 q 131 742 69 636 q 299 910 193 849 q 531 972 406 972 l 531 924 m 944 463 l 167 463 l 167 511 l 944 511 l 944 463 m 579 0 l 579 49 q 872 169 751 49 q 993 461 993 290 l 1042 461 q 980 230 1042 336 q 812 62 918 124 q 579 0 706 0 m 531 0 l 69 0 l 69 49 l 531 49 l 531 0 m 1042 924 l 579 924 l 579 972 l 1042 972 l 1042 924 z "},"":{"ha":1111,"x_min":69,"x_max":1042,"o":"m 944 463 l 167 463 l 167 511 l 944 511 l 944 463 m 531 924 q 239 803 360 924 q 118 511 118 682 l 69 511 q 131 742 69 636 q 299 910 193 849 q 531 972 406 972 l 531 924 m 1042 924 l 579 924 l 579 972 l 1042 972 l 1042 924 m 531 0 l 69 0 l 69 49 l 531 49 l 531 0 m 579 0 l 579 49 q 872 169 751 49 q 993 461 993 290 l 1042 461 q 980 230 1042 336 q 812 62 918 124 q 579 0 706 0 z "}}}
